<mxfile host="app.diagrams.net" modified="2024-03-24T20:20:28.873Z" agent="Mozilla/5.0 (X11; Linux x86_64; rv:109.0) Gecko/20100101 Firefox/115.0" etag="R1g2FhcStGUVkpnuzpjQ" version="24.1.0" type="github">
  <diagram name="Page-1" id="7e0a89b8-554c-2b80-1dc8-d5c74ca68de4">
    <mxGraphModel dx="332" dy="200" grid="1" gridSize="10" guides="1" tooltips="1" connect="1" arrows="1" fold="1" page="1" pageScale="1" pageWidth="1100" pageHeight="850" background="none" math="1" shadow="0">
      <root>
        <mxCell id="0" />
        <mxCell id="1" parent="0" />
        <mxCell id="FeCao_x4S49SE_JTiYvp-1" value="" style="endArrow=none;html=1;rounded=0;curved=0;flowAnimation=0;strokeWidth=2;snapToPoint=1;" edge="1" parent="1">
          <mxGeometry width="50" height="50" relative="1" as="geometry">
            <mxPoint x="120" y="160" as="sourcePoint" />
            <mxPoint x="440" y="160" as="targetPoint" />
          </mxGeometry>
        </mxCell>
        <mxCell id="FeCao_x4S49SE_JTiYvp-6" value="" style="endArrow=none;html=1;rounded=0;curved=0;flowAnimation=0;strokeWidth=2;snapToPoint=1;" edge="1" parent="1">
          <mxGeometry width="50" height="50" relative="1" as="geometry">
            <mxPoint x="120" y="320" as="sourcePoint" />
            <mxPoint x="440" y="320" as="targetPoint" />
          </mxGeometry>
        </mxCell>
        <mxCell id="FeCao_x4S49SE_JTiYvp-7" value="" style="endArrow=none;html=1;rounded=0;strokeWidth=2;" edge="1" parent="1">
          <mxGeometry width="50" height="50" relative="1" as="geometry">
            <mxPoint x="440" y="320" as="sourcePoint" />
            <mxPoint x="440" y="280" as="targetPoint" />
          </mxGeometry>
        </mxCell>
        <mxCell id="FeCao_x4S49SE_JTiYvp-8" value="" style="endArrow=none;html=1;rounded=0;strokeWidth=2;" edge="1" parent="1">
          <mxGeometry width="50" height="50" relative="1" as="geometry">
            <mxPoint x="440" y="200" as="sourcePoint" />
            <mxPoint x="440" y="160" as="targetPoint" />
          </mxGeometry>
        </mxCell>
        <mxCell id="FeCao_x4S49SE_JTiYvp-9" value="" style="endArrow=none;html=1;rounded=0;strokeWidth=2;" edge="1" parent="1">
          <mxGeometry width="50" height="50" relative="1" as="geometry">
            <mxPoint x="460" y="280" as="sourcePoint" />
            <mxPoint x="440" y="280" as="targetPoint" />
          </mxGeometry>
        </mxCell>
        <mxCell id="FeCao_x4S49SE_JTiYvp-10" value="" style="endArrow=none;html=1;rounded=0;strokeWidth=2;" edge="1" parent="1">
          <mxGeometry width="50" height="50" relative="1" as="geometry">
            <mxPoint x="460" y="200" as="sourcePoint" />
            <mxPoint x="440" y="200" as="targetPoint" />
          </mxGeometry>
        </mxCell>
        <mxCell id="FeCao_x4S49SE_JTiYvp-11" value="" style="endArrow=none;html=1;rounded=0;strokeWidth=2;" edge="1" parent="1">
          <mxGeometry width="50" height="50" relative="1" as="geometry">
            <mxPoint x="480" y="180" as="sourcePoint" />
            <mxPoint x="460" y="200" as="targetPoint" />
          </mxGeometry>
        </mxCell>
        <mxCell id="FeCao_x4S49SE_JTiYvp-12" value="" style="endArrow=none;html=1;rounded=0;strokeWidth=2;" edge="1" parent="1">
          <mxGeometry width="50" height="50" relative="1" as="geometry">
            <mxPoint x="480" y="300" as="sourcePoint" />
            <mxPoint x="460" y="280" as="targetPoint" />
          </mxGeometry>
        </mxCell>
        <mxCell id="FeCao_x4S49SE_JTiYvp-13" value="" style="endArrow=none;html=1;rounded=0;strokeWidth=2;" edge="1" parent="1">
          <mxGeometry width="50" height="50" relative="1" as="geometry">
            <mxPoint x="480" y="320" as="sourcePoint" />
            <mxPoint x="480" y="300" as="targetPoint" />
          </mxGeometry>
        </mxCell>
        <mxCell id="FeCao_x4S49SE_JTiYvp-14" value="" style="endArrow=none;html=1;rounded=0;strokeWidth=2;" edge="1" parent="1">
          <mxGeometry width="50" height="50" relative="1" as="geometry">
            <mxPoint x="720" y="320" as="sourcePoint" />
            <mxPoint x="480" y="320" as="targetPoint" />
          </mxGeometry>
        </mxCell>
        <mxCell id="FeCao_x4S49SE_JTiYvp-15" value="" style="endArrow=none;html=1;rounded=0;strokeWidth=2;" edge="1" parent="1">
          <mxGeometry width="50" height="50" relative="1" as="geometry">
            <mxPoint x="480" y="160" as="sourcePoint" />
            <mxPoint x="480" y="180" as="targetPoint" />
          </mxGeometry>
        </mxCell>
        <mxCell id="FeCao_x4S49SE_JTiYvp-16" value="" style="endArrow=none;html=1;rounded=0;strokeWidth=2;" edge="1" parent="1">
          <mxGeometry width="50" height="50" relative="1" as="geometry">
            <mxPoint x="720" y="160" as="sourcePoint" />
            <mxPoint x="480" y="160" as="targetPoint" />
          </mxGeometry>
        </mxCell>
        <mxCell id="FeCao_x4S49SE_JTiYvp-17" value="" style="endArrow=classic;startArrow=classic;html=1;rounded=0;snapToPoint=1;jumpSize=6;strokeWidth=0.5;" edge="1" parent="1">
          <mxGeometry width="50" height="50" relative="1" as="geometry">
            <mxPoint x="320" y="320" as="sourcePoint" />
            <mxPoint x="320" y="160" as="targetPoint" />
          </mxGeometry>
        </mxCell>
        <mxCell id="FeCao_x4S49SE_JTiYvp-18" value="$$ D $$" style="text;html=1;align=center;verticalAlign=middle;whiteSpace=wrap;rounded=0;" vertex="1" parent="1">
          <mxGeometry x="300" y="225" width="17" height="30" as="geometry" />
        </mxCell>
        <mxCell id="FeCao_x4S49SE_JTiYvp-19" value="" style="endArrow=classic;startArrow=classic;html=1;rounded=0;snapToPoint=1;jumpSize=6;strokeWidth=0.5;" edge="1" parent="1">
          <mxGeometry width="50" height="50" relative="1" as="geometry">
            <mxPoint x="440" y="280" as="sourcePoint" />
            <mxPoint x="440" y="200" as="targetPoint" />
          </mxGeometry>
        </mxCell>
        <mxCell id="FeCao_x4S49SE_JTiYvp-20" value="$$ d $$" style="text;html=1;align=center;verticalAlign=middle;whiteSpace=wrap;rounded=0;" vertex="1" parent="1">
          <mxGeometry x="420" y="225" width="20" height="30" as="geometry" />
        </mxCell>
        <mxCell id="FeCao_x4S49SE_JTiYvp-27" value="" style="shape=delay;whiteSpace=wrap;html=1;fillColor=#99c1f1;movable=0;resizable=0;rotatable=0;deletable=0;editable=0;locked=1;connectable=0;" vertex="1" parent="1">
          <mxGeometry x="160" y="160" width="30" height="160" as="geometry" />
        </mxCell>
        <mxCell id="FeCao_x4S49SE_JTiYvp-31" value="" style="endArrow=classic;html=1;rounded=0;endSize=2;" edge="1" parent="1">
          <mxGeometry width="50" height="50" relative="1" as="geometry">
            <mxPoint x="160" y="270" as="sourcePoint" />
            <mxPoint x="189" y="270" as="targetPoint" />
          </mxGeometry>
        </mxCell>
        <mxCell id="FeCao_x4S49SE_JTiYvp-32" value="" style="endArrow=classic;html=1;rounded=0;endSize=2;" edge="1" parent="1">
          <mxGeometry width="50" height="50" relative="1" as="geometry">
            <mxPoint x="160" y="280" as="sourcePoint" />
            <mxPoint x="187" y="280" as="targetPoint" />
          </mxGeometry>
        </mxCell>
        <mxCell id="FeCao_x4S49SE_JTiYvp-33" value="" style="endArrow=classic;html=1;rounded=0;endSize=2;" edge="1" parent="1">
          <mxGeometry width="50" height="50" relative="1" as="geometry">
            <mxPoint x="160" y="290" as="sourcePoint" />
            <mxPoint x="185" y="290" as="targetPoint" />
          </mxGeometry>
        </mxCell>
        <mxCell id="FeCao_x4S49SE_JTiYvp-34" value="" style="endArrow=classic;html=1;rounded=0;endSize=2;" edge="1" parent="1">
          <mxGeometry width="50" height="50" relative="1" as="geometry">
            <mxPoint x="160" y="300" as="sourcePoint" />
            <mxPoint x="182" y="300" as="targetPoint" />
          </mxGeometry>
        </mxCell>
        <mxCell id="FeCao_x4S49SE_JTiYvp-35" value="" style="endArrow=classic;html=1;rounded=0;endSize=2;" edge="1" parent="1">
          <mxGeometry width="50" height="50" relative="1" as="geometry">
            <mxPoint x="160" y="310" as="sourcePoint" />
            <mxPoint x="177" y="310" as="targetPoint" />
          </mxGeometry>
        </mxCell>
        <mxCell id="FeCao_x4S49SE_JTiYvp-37" value="" style="endArrow=classic;html=1;rounded=0;endSize=2;" edge="1" parent="1">
          <mxGeometry width="50" height="50" relative="1" as="geometry">
            <mxPoint x="160" y="260" as="sourcePoint" />
            <mxPoint x="190" y="260" as="targetPoint" />
          </mxGeometry>
        </mxCell>
        <mxCell id="FeCao_x4S49SE_JTiYvp-38" value="" style="endArrow=classic;html=1;rounded=0;endSize=2;" edge="1" parent="1">
          <mxGeometry width="50" height="50" relative="1" as="geometry">
            <mxPoint x="160" y="250" as="sourcePoint" />
            <mxPoint x="190" y="250" as="targetPoint" />
          </mxGeometry>
        </mxCell>
        <mxCell id="FeCao_x4S49SE_JTiYvp-39" value="" style="endArrow=classic;html=1;rounded=0;endSize=2;" edge="1" parent="1">
          <mxGeometry width="50" height="50" relative="1" as="geometry">
            <mxPoint x="160" y="239.89" as="sourcePoint" />
            <mxPoint x="190" y="239.89" as="targetPoint" />
          </mxGeometry>
        </mxCell>
        <mxCell id="FeCao_x4S49SE_JTiYvp-40" value="" style="endArrow=classic;html=1;rounded=0;endSize=2;" edge="1" parent="1">
          <mxGeometry width="50" height="50" relative="1" as="geometry">
            <mxPoint x="160" y="230" as="sourcePoint" />
            <mxPoint x="190" y="230" as="targetPoint" />
          </mxGeometry>
        </mxCell>
        <mxCell id="FeCao_x4S49SE_JTiYvp-41" value="" style="endArrow=classic;html=1;rounded=0;endSize=2;" edge="1" parent="1">
          <mxGeometry width="50" height="50" relative="1" as="geometry">
            <mxPoint x="160" y="220" as="sourcePoint" />
            <mxPoint x="190" y="220" as="targetPoint" />
          </mxGeometry>
        </mxCell>
        <mxCell id="FeCao_x4S49SE_JTiYvp-42" value="" style="endArrow=classic;html=1;rounded=0;endSize=2;" edge="1" parent="1">
          <mxGeometry width="50" height="50" relative="1" as="geometry">
            <mxPoint x="160" y="210" as="sourcePoint" />
            <mxPoint x="188" y="210" as="targetPoint" />
          </mxGeometry>
        </mxCell>
        <mxCell id="FeCao_x4S49SE_JTiYvp-44" value="" style="endArrow=classic;html=1;rounded=0;endSize=2;" edge="1" parent="1">
          <mxGeometry width="50" height="50" relative="1" as="geometry">
            <mxPoint x="160" y="200" as="sourcePoint" />
            <mxPoint x="188" y="200" as="targetPoint" />
          </mxGeometry>
        </mxCell>
        <mxCell id="FeCao_x4S49SE_JTiYvp-45" value="" style="endArrow=classic;html=1;rounded=0;endSize=2;" edge="1" parent="1">
          <mxGeometry width="50" height="50" relative="1" as="geometry">
            <mxPoint x="160" y="190" as="sourcePoint" />
            <mxPoint x="185" y="190" as="targetPoint" />
          </mxGeometry>
        </mxCell>
        <mxCell id="FeCao_x4S49SE_JTiYvp-46" value="" style="endArrow=classic;html=1;rounded=0;endSize=2;" edge="1" parent="1">
          <mxGeometry width="50" height="50" relative="1" as="geometry">
            <mxPoint x="160" y="180" as="sourcePoint" />
            <mxPoint x="183" y="180" as="targetPoint" />
          </mxGeometry>
        </mxCell>
        <mxCell id="FeCao_x4S49SE_JTiYvp-47" value="" style="endArrow=classic;html=1;rounded=0;endSize=2;" edge="1" parent="1">
          <mxGeometry width="50" height="50" relative="1" as="geometry">
            <mxPoint x="160" y="170" as="sourcePoint" />
            <mxPoint x="177" y="170" as="targetPoint" />
          </mxGeometry>
        </mxCell>
      </root>
    </mxGraphModel>
  </diagram>
</mxfile>
